{
    "asset" : {
        "generator" : "Khronos glTF Blender I/O v1.6.16",
        "version" : "2.0"
    },
    "scene" : 0,
    "scenes" : [
        {
            "name" : "Scene",
            "nodes" : [
                0,
                1,
                2,
                3,
                4
            ]
        }
    ],
    "nodes" : [
        {
            "mesh" : 0,
            "name" : "Cylinder",
            "scale" : [
                1.1029160022735596,
                0.25,
                1.0743000507354736
            ],
            "translation" : [
                -0.027551207691431046,
                0.13008826971054077,
                -0.044162116944789886
            ]
        },
        {
            "mesh" : 1,
            "name" : "Cylinder.001",
            "scale" : [
                0.8999999761581421,
                1,
                0.8999999761581421
            ],
            "translation" : [
                -0.02755120024085045,
                0.7561296820640564,
                -0.04416212439537048
            ]
        },
        {
            "mesh" : 2,
            "name" : "Cube.001",
            "scale" : [
                0.125,
                0.125,
                0.125
            ],
            "translation" : [
                0,
                1.6537401676177979,
                0.0827101618051529
            ]
        },
        {
            "mesh" : 3,
            "name" : "Cube.002",
            "scale" : [
                0.125,
                0.125,
                0.125
            ],
            "translation" : [
                0.48320478200912476,
                1.6537401676177979,
                -0.032516349107027054
            ]
        },
        {
            "mesh" : 4,
            "name" : "Cube.004",
            "scale" : [
                0.125,
                0.125,
                0.125
            ],
            "translation" : [
                -0.48464667797088623,
                1.6537401676177979,
                -0.032516349107027054
            ]
        }
    ],
    "materials" : [
        {
            "doubleSided" : true,
            "name" : "Material.008",
            "pbrMetallicRoughness" : {
                "baseColorFactor" : [
                    0.16826941072940826,
                    0,
                    0.0012141107581555843,
                    1
                ],
                "metallicFactor" : 0,
                "roughnessFactor" : 0.5
            }
        },
        {
            "doubleSided" : true,
            "name" : "Material.007",
            "pbrMetallicRoughness" : {
                "baseColorFactor" : [
                    0.5332767367362976,
                    0.14995980262756348,
                    0.05951126664876938,
                    1
                ],
                "metallicFactor" : 0,
                "roughnessFactor" : 0.5
            }
        },
        {
            "doubleSided" : true,
            "emissiveFactor" : [
                0.36723756790161133,
                0.06686818599700928,
                0
            ],
            "name" : "Material.003",
            "pbrMetallicRoughness" : {
                "baseColorFactor" : [
                    0.8000000715255737,
                    0.4677240252494812,
                    0.10944884270429611,
                    1
                ],
                "metallicFactor" : 0,
                "roughnessFactor" : 0
            }
        },
        {
            "doubleSided" : true,
            "emissiveFactor" : [
                0.36723756790161133,
                0.06686818599700928,
                0
            ],
            "name" : "Material.005",
            "pbrMetallicRoughness" : {
                "baseColorFactor" : [
                    0.8000000715255737,
                    0.4677240252494812,
                    0.10944884270429611,
                    1
                ],
                "metallicFactor" : 0,
                "roughnessFactor" : 0
            }
        },
        {
            "doubleSided" : true,
            "emissiveFactor" : [
                0.36723756790161133,
                0.06686818599700928,
                0
            ],
            "name" : "Material.006",
            "pbrMetallicRoughness" : {
                "baseColorFactor" : [
                    0.8000000715255737,
                    0.4677240252494812,
                    0.10944884270429611,
                    1
                ],
                "metallicFactor" : 0,
                "roughnessFactor" : 0
            }
        }
    ],
    "meshes" : [
        {
            "name" : "Cylinder",
            "primitives" : [
                {
                    "attributes" : {
                        "POSITION" : 0,
                        "NORMAL" : 1,
                        "TEXCOORD_0" : 2
                    },
                    "indices" : 3,
                    "material" : 0
                }
            ]
        },
        {
            "name" : "Cylinder.001",
            "primitives" : [
                {
                    "attributes" : {
                        "POSITION" : 4,
                        "NORMAL" : 5,
                        "TEXCOORD_0" : 6
                    },
                    "indices" : 3,
                    "material" : 1
                }
            ]
        },
        {
            "name" : "Cube.004",
            "primitives" : [
                {
                    "attributes" : {
                        "POSITION" : 7,
                        "NORMAL" : 8
                    },
                    "indices" : 9,
                    "material" : 2
                }
            ]
        },
        {
            "name" : "Cube.005",
            "primitives" : [
                {
                    "attributes" : {
                        "POSITION" : 10,
                        "NORMAL" : 11
                    },
                    "indices" : 9,
                    "material" : 3
                }
            ]
        },
        {
            "name" : "Cube.006",
            "primitives" : [
                {
                    "attributes" : {
                        "POSITION" : 12,
                        "NORMAL" : 13
                    },
                    "indices" : 9,
                    "material" : 4
                }
            ]
        }
    ],
    "accessors" : [
        {
            "bufferView" : 0,
            "componentType" : 5126,
            "count" : 36,
            "max" : [
                0.8826782703399658,
                0.5174833536148071,
                0.46051034331321716
            ],
            "min" : [
                -0.8826781511306763,
                -0.5174833536148071,
                -0.46051040291786194
            ],
            "type" : "VEC3"
        },
        {
            "bufferView" : 1,
            "componentType" : 5126,
            "count" : 36,
            "type" : "VEC3"
        },
        {
            "bufferView" : 2,
            "componentType" : 5126,
            "count" : 36,
            "type" : "VEC2"
        },
        {
            "bufferView" : 3,
            "componentType" : 5123,
            "count" : 60,
            "type" : "SCALAR"
        },
        {
            "bufferView" : 4,
            "componentType" : 5126,
            "count" : 36,
            "max" : [
                0.8826782703399658,
                0.5174833536148071,
                0.46051034331321716
            ],
            "min" : [
                -0.8826781511306763,
                -0.5174833536148071,
                -0.46051040291786194
            ],
            "type" : "VEC3"
        },
        {
            "bufferView" : 5,
            "componentType" : 5126,
            "count" : 36,
            "type" : "VEC3"
        },
        {
            "bufferView" : 6,
            "componentType" : 5126,
            "count" : 36,
            "type" : "VEC2"
        },
        {
            "bufferView" : 7,
            "componentType" : 5126,
            "count" : 720,
            "max" : [
                1.4777289628982544,
                1.9165866374969482,
                1.1164401769638062
            ],
            "min" : [
                -1.4744099378585815,
                -3.113238573074341,
                -1.4787216186523438
            ],
            "type" : "VEC3"
        },
        {
            "bufferView" : 8,
            "componentType" : 5126,
            "count" : 720,
            "type" : "VEC3"
        },
        {
            "bufferView" : 9,
            "componentType" : 5123,
            "count" : 1080,
            "type" : "SCALAR"
        },
        {
            "bufferView" : 10,
            "componentType" : 5126,
            "count" : 720,
            "max" : [
                1.4777289628982544,
                1.9165866374969482,
                1.1164401769638062
            ],
            "min" : [
                -1.4744099378585815,
                -3.113238573074341,
                -1.4787216186523438
            ],
            "type" : "VEC3"
        },
        {
            "bufferView" : 11,
            "componentType" : 5126,
            "count" : 720,
            "type" : "VEC3"
        },
        {
            "bufferView" : 12,
            "componentType" : 5126,
            "count" : 720,
            "max" : [
                1.4777289628982544,
                1.9165866374969482,
                1.1164401769638062
            ],
            "min" : [
                -1.4744099378585815,
                -3.113238573074341,
                -1.4787216186523438
            ],
            "type" : "VEC3"
        },
        {
            "bufferView" : 13,
            "componentType" : 5126,
            "count" : 720,
            "type" : "VEC3"
        }
    ],
    "bufferViews" : [
        {
            "buffer" : 0,
            "byteLength" : 432,
            "byteOffset" : 0
        },
        {
            "buffer" : 0,
            "byteLength" : 432,
            "byteOffset" : 432
        },
        {
            "buffer" : 0,
            "byteLength" : 288,
            "byteOffset" : 864
        },
        {
            "buffer" : 0,
            "byteLength" : 120,
            "byteOffset" : 1152
        },
        {
            "buffer" : 0,
            "byteLength" : 432,
            "byteOffset" : 1272
        },
        {
            "buffer" : 0,
            "byteLength" : 432,
            "byteOffset" : 1704
        },
        {
            "buffer" : 0,
            "byteLength" : 288,
            "byteOffset" : 2136
        },
        {
            "buffer" : 0,
            "byteLength" : 8640,
            "byteOffset" : 2424
        },
        {
            "buffer" : 0,
            "byteLength" : 8640,
            "byteOffset" : 11064
        },
        {
            "buffer" : 0,
            "byteLength" : 2160,
            "byteOffset" : 19704
        },
        {
            "buffer" : 0,
            "byteLength" : 8640,
            "byteOffset" : 21864
        },
        {
            "buffer" : 0,
            "byteLength" : 8640,
            "byteOffset" : 30504
        },
        {
            "buffer" : 0,
            "byteLength" : 8640,
            "byteOffset" : 39144
        },
        {
            "buffer" : 0,
            "byteLength" : 8640,
            "byteOffset" : 47784
        }
    ],
    "buffers" : [
        {
            "byteLength" : 56424,
            "uri" : "monumento3.bin"
        }
    ]
}
