{
    "asset" : {
        "generator" : "Khronos glTF Blender I/O v1.6.16",
        "version" : "2.0"
    },
    "scene" : 0,
    "scenes" : [
        {
            "name" : "Scene",
            "nodes" : [
                0,
                1,
                2,
                3,
                4
            ]
        }
    ],
    "nodes" : [
        {
            "mesh" : 0,
            "name" : "Portal.003",
            "rotation" : [
                0,
                -0.9218060374259949,
                0,
                0.3876514434814453
            ],
            "scale" : [
                0.15000000596046448,
                0.5,
                0.15000000596046448
            ],
            "translation" : [
                0.9678557515144348,
                1.1307165622711182,
                0.9250457286834717
            ]
        },
        {
            "mesh" : 1,
            "name" : "Portal.004",
            "rotation" : [
                0,
                -0.9218060374259949,
                0,
                0.3876514434814453
            ],
            "scale" : [
                0.15000000596046448,
                0.5,
                0.15000000596046448
            ],
            "translation" : [
                -0.9196869730949402,
                1.1307165622711182,
                -0.8748390674591064
            ]
        },
        {
            "mesh" : 2,
            "name" : "Portal.005",
            "rotation" : [
                0,
                -0.9218060374259949,
                0,
                0.3876514434814453
            ],
            "scale" : [
                0.07500000298023224,
                0.15000000596046448,
                3
            ],
            "translation" : [
                0.02035742998123169,
                1.7338883876800537,
                0.012029409408569336
            ]
        },
        {
            "mesh" : 3,
            "name" : "TextoEstacion.002",
            "rotation" : [
                0.6547287702560425,
                -0.26707735657691956,
                0.26707732677459717,
                0.6547287106513977
            ],
            "scale" : [
                0.5,
                0.5,
                0.5
            ],
            "translation" : [
                -0.8007275462150574,
                1.583888292312622,
                -0.7048532962799072
            ]
        },
        {
            "mesh" : 4,
            "name" : "TextoEstacion.003",
            "rotation" : [
                -0.26707741618156433,
                -0.6547286510467529,
                0.6547287106513977,
                -0.2670774459838867
            ],
            "scale" : [
                0.5,
                0.5,
                0.5
            ],
            "translation" : [
                0.8604491353034973,
                1.583888292312622,
                0.7410018444061279
            ]
        }
    ],
    "materials" : [
        {
            "doubleSided" : true,
            "name" : "Material.007",
            "pbrMetallicRoughness" : {
                "baseColorFactor" : [
                    0.7019909620285034,
                    0.8000000715255737,
                    0.6962789297103882,
                    1
                ],
                "metallicFactor" : 0,
                "roughnessFactor" : 0.4000000059604645
            }
        },
        {
            "doubleSided" : true,
            "name" : "Material.005",
            "pbrMetallicRoughness" : {
                "baseColorFactor" : [
                    0.009018013253808022,
                    0.009018013253808022,
                    0.009018013253808022,
                    1
                ],
                "metallicFactor" : 0,
                "roughnessFactor" : 0.5
            }
        },
        {
            "doubleSided" : true,
            "name" : "Material.006",
            "pbrMetallicRoughness" : {
                "baseColorFactor" : [
                    0.7019909620285034,
                    0.8000000715255737,
                    0.6962789297103882,
                    1
                ],
                "metallicFactor" : 0,
                "roughnessFactor" : 0.4000000059604645
            }
        }
    ],
    "meshes" : [
        {
            "name" : "Cube.028",
            "primitives" : [
                {
                    "attributes" : {
                        "POSITION" : 0,
                        "NORMAL" : 1,
                        "TEXCOORD_0" : 2
                    },
                    "indices" : 3,
                    "material" : 0
                }
            ]
        },
        {
            "name" : "Cube.098",
            "primitives" : [
                {
                    "attributes" : {
                        "POSITION" : 4,
                        "NORMAL" : 5,
                        "TEXCOORD_0" : 6
                    },
                    "indices" : 3,
                    "material" : 0
                }
            ]
        },
        {
            "name" : "Cube.099",
            "primitives" : [
                {
                    "attributes" : {
                        "POSITION" : 7,
                        "NORMAL" : 8,
                        "TEXCOORD_0" : 9
                    },
                    "indices" : 3,
                    "material" : 1
                }
            ]
        },
        {
            "name" : "Text.002",
            "primitives" : [
                {
                    "attributes" : {
                        "POSITION" : 10,
                        "NORMAL" : 11,
                        "TEXCOORD_0" : 12
                    },
                    "indices" : 13,
                    "material" : 2
                }
            ]
        },
        {
            "name" : "Text.003",
            "primitives" : [
                {
                    "attributes" : {
                        "POSITION" : 14,
                        "NORMAL" : 15,
                        "TEXCOORD_0" : 16
                    },
                    "indices" : 13,
                    "material" : 0
                }
            ]
        }
    ],
    "accessors" : [
        {
            "bufferView" : 0,
            "componentType" : 5126,
            "count" : 24,
            "max" : [
                0.4141702651977539,
                2.2012810707092285,
                0.4277687072753906
            ],
            "min" : [
                -0.4141702651977539,
                -2.2012810707092285,
                -0.4277687072753906
            ],
            "type" : "VEC3"
        },
        {
            "bufferView" : 1,
            "componentType" : 5126,
            "count" : 24,
            "type" : "VEC3"
        },
        {
            "bufferView" : 2,
            "componentType" : 5126,
            "count" : 24,
            "type" : "VEC2"
        },
        {
            "bufferView" : 3,
            "componentType" : 5123,
            "count" : 36,
            "type" : "SCALAR"
        },
        {
            "bufferView" : 4,
            "componentType" : 5126,
            "count" : 24,
            "max" : [
                0.4141702651977539,
                2.2012810707092285,
                0.4277687072753906
            ],
            "min" : [
                -0.4141702651977539,
                -2.2012810707092285,
                -0.4277687072753906
            ],
            "type" : "VEC3"
        },
        {
            "bufferView" : 5,
            "componentType" : 5126,
            "count" : 24,
            "type" : "VEC3"
        },
        {
            "bufferView" : 6,
            "componentType" : 5126,
            "count" : 24,
            "type" : "VEC2"
        },
        {
            "bufferView" : 7,
            "componentType" : 5126,
            "count" : 24,
            "max" : [
                0.4141702651977539,
                2.2012810707092285,
                0.4277687072753906
            ],
            "min" : [
                -0.4141702651977539,
                -2.2012810707092285,
                -0.4277687072753906
            ],
            "type" : "VEC3"
        },
        {
            "bufferView" : 8,
            "componentType" : 5126,
            "count" : 24,
            "type" : "VEC3"
        },
        {
            "bufferView" : 9,
            "componentType" : 5126,
            "count" : 24,
            "type" : "VEC2"
        },
        {
            "bufferView" : 10,
            "componentType" : 5126,
            "count" : 1453,
            "max" : [
                4.3510003089904785,
                0.009999999776482582,
                0.009000000543892384
            ],
            "min" : [
                0.07000000029802322,
                -0.009999999776482582,
                -0.6910000443458557
            ],
            "type" : "VEC3"
        },
        {
            "bufferView" : 11,
            "componentType" : 5126,
            "count" : 1453,
            "type" : "VEC3"
        },
        {
            "bufferView" : 12,
            "componentType" : 5126,
            "count" : 1453,
            "type" : "VEC2"
        },
        {
            "bufferView" : 13,
            "componentType" : 5123,
            "count" : 2580,
            "type" : "SCALAR"
        },
        {
            "bufferView" : 14,
            "componentType" : 5126,
            "count" : 1453,
            "max" : [
                4.3510003089904785,
                0.009999999776482582,
                0.009000000543892384
            ],
            "min" : [
                0.07000000029802322,
                -0.009999999776482582,
                -0.6910000443458557
            ],
            "type" : "VEC3"
        },
        {
            "bufferView" : 15,
            "componentType" : 5126,
            "count" : 1453,
            "type" : "VEC3"
        },
        {
            "bufferView" : 16,
            "componentType" : 5126,
            "count" : 1453,
            "type" : "VEC2"
        }
    ],
    "bufferViews" : [
        {
            "buffer" : 0,
            "byteLength" : 288,
            "byteOffset" : 0
        },
        {
            "buffer" : 0,
            "byteLength" : 288,
            "byteOffset" : 288
        },
        {
            "buffer" : 0,
            "byteLength" : 192,
            "byteOffset" : 576
        },
        {
            "buffer" : 0,
            "byteLength" : 72,
            "byteOffset" : 768
        },
        {
            "buffer" : 0,
            "byteLength" : 288,
            "byteOffset" : 840
        },
        {
            "buffer" : 0,
            "byteLength" : 288,
            "byteOffset" : 1128
        },
        {
            "buffer" : 0,
            "byteLength" : 192,
            "byteOffset" : 1416
        },
        {
            "buffer" : 0,
            "byteLength" : 288,
            "byteOffset" : 1608
        },
        {
            "buffer" : 0,
            "byteLength" : 288,
            "byteOffset" : 1896
        },
        {
            "buffer" : 0,
            "byteLength" : 192,
            "byteOffset" : 2184
        },
        {
            "buffer" : 0,
            "byteLength" : 17436,
            "byteOffset" : 2376
        },
        {
            "buffer" : 0,
            "byteLength" : 17436,
            "byteOffset" : 19812
        },
        {
            "buffer" : 0,
            "byteLength" : 11624,
            "byteOffset" : 37248
        },
        {
            "buffer" : 0,
            "byteLength" : 5160,
            "byteOffset" : 48872
        },
        {
            "buffer" : 0,
            "byteLength" : 17436,
            "byteOffset" : 54032
        },
        {
            "buffer" : 0,
            "byteLength" : 17436,
            "byteOffset" : 71468
        },
        {
            "buffer" : 0,
            "byteLength" : 11624,
            "byteOffset" : 88904
        }
    ],
    "buffers" : [
        {
            "byteLength" : 100528,
            "uri" : "secreto1.bin"
        }
    ]
}
