{
    "asset" : {
        "generator" : "Khronos glTF Blender I/O v1.6.16",
        "version" : "2.0"
    },
    "scene" : 0,
    "scenes" : [
        {
            "name" : "Scene",
            "nodes" : [
                0
            ]
        }
    ],
    "nodes" : [
        {
            "mesh" : 0,
            "name" : "Valija",
            "translation" : [
                0.0038515329360961914,
                0.3639434576034546,
                0.00744551420211792
            ]
        }
    ],
    "materials" : [
        {
            "doubleSided" : true,
            "name" : "Marron",
            "pbrMetallicRoughness" : {
                "baseColorFactor" : [
                    0.12213882058858871,
                    0.06847817450761795,
                    0.02732088975608349,
                    1
                ],
                "metallicFactor" : 0,
                "roughnessFactor" : 0.5
            }
        },
        {
            "doubleSided" : true,
            "name" : "Negro",
            "pbrMetallicRoughness" : {
                "baseColorFactor" : [
                    0.01161225326359272,
                    0.0116122430190444,
                    0.011612246744334698,
                    1
                ],
                "metallicFactor" : 0,
                "roughnessFactor" : 0.5
            }
        }
    ],
    "meshes" : [
        {
            "name" : "Cube",
            "primitives" : [
                {
                    "attributes" : {
                        "POSITION" : 0,
                        "NORMAL" : 1,
                        "TEXCOORD_0" : 2
                    },
                    "indices" : 3,
                    "material" : 0
                },
                {
                    "attributes" : {
                        "POSITION" : 4,
                        "NORMAL" : 5,
                        "TEXCOORD_0" : 6
                    },
                    "indices" : 7,
                    "material" : 1
                }
            ]
        }
    ],
    "accessors" : [
        {
            "bufferView" : 0,
            "componentType" : 5126,
            "count" : 140,
            "max" : [
                0.4813293218612671,
                0.6207230091094971,
                0.1644495129585266
            ],
            "min" : [
                -0.4813293218612671,
                -0.3639434576034546,
                -0.17874141037464142
            ],
            "type" : "VEC3"
        },
        {
            "bufferView" : 1,
            "componentType" : 5126,
            "count" : 140,
            "type" : "VEC3"
        },
        {
            "bufferView" : 2,
            "componentType" : 5126,
            "count" : 140,
            "type" : "VEC2"
        },
        {
            "bufferView" : 3,
            "componentType" : 5123,
            "count" : 318,
            "type" : "SCALAR"
        },
        {
            "bufferView" : 4,
            "componentType" : 5126,
            "count" : 56,
            "max" : [
                0.24625015258789062,
                0.6913279294967651,
                0.02104564756155014
            ],
            "min" : [
                -0.24066466093063354,
                0.3639434576034546,
                -0.014079190790653229
            ],
            "type" : "VEC3"
        },
        {
            "bufferView" : 5,
            "componentType" : 5126,
            "count" : 56,
            "type" : "VEC3"
        },
        {
            "bufferView" : 6,
            "componentType" : 5126,
            "count" : 56,
            "type" : "VEC2"
        },
        {
            "bufferView" : 7,
            "componentType" : 5123,
            "count" : 102,
            "type" : "SCALAR"
        }
    ],
    "bufferViews" : [
        {
            "buffer" : 0,
            "byteLength" : 1680,
            "byteOffset" : 0
        },
        {
            "buffer" : 0,
            "byteLength" : 1680,
            "byteOffset" : 1680
        },
        {
            "buffer" : 0,
            "byteLength" : 1120,
            "byteOffset" : 3360
        },
        {
            "buffer" : 0,
            "byteLength" : 636,
            "byteOffset" : 4480
        },
        {
            "buffer" : 0,
            "byteLength" : 672,
            "byteOffset" : 5116
        },
        {
            "buffer" : 0,
            "byteLength" : 672,
            "byteOffset" : 5788
        },
        {
            "buffer" : 0,
            "byteLength" : 448,
            "byteOffset" : 6460
        },
        {
            "buffer" : 0,
            "byteLength" : 204,
            "byteOffset" : 6908
        }
    ],
    "buffers" : [
        {
            "byteLength" : 7112,
            "uri" : "secreto4.bin"
        }
    ]
}
