{
    "asset" : {
        "generator" : "Khronos glTF Blender I/O v1.6.16",
        "version" : "2.0"
    },
    "scene" : 0,
    "scenes" : [
        {
            "name" : "Scene",
            "nodes" : [
                0,
                1
            ]
        }
    ],
    "nodes" : [
        {
            "mesh" : 0,
            "name" : "PlantaMonte",
            "rotation" : [
                0,
                -0.7071068286895752,
                0,
                -0.7071068286895752
            ],
            "scale" : [
                0.8882738947868347,
                1.7765477895736694,
                0.8882738947868347
            ],
            "translation" : [
                -0.02524113655090332,
                1.7254880666732788,
                0.04924014210700989
            ]
        },
        {
            "mesh" : 1,
            "name" : "Soga",
            "rotation" : [
                0.5,
                -0.5,
                -0.4999999701976776,
                0.5
            ],
            "scale" : [
                2.6648218631744385,
                1.7765477895736694,
                2.6648218631744385
            ],
            "translation" : [
                -1.0324876308441162,
                1.1873418092727661,
                0.20787525177001953
            ]
        }
    ],
    "materials" : [
        {
            "doubleSided" : true,
            "name" : "Tree.037",
            "pbrMetallicRoughness" : {
                "baseColorFactor" : [
                    0.012216801755130291,
                    0.007490183692425489,
                    0.003809085115790367,
                    1
                ],
                "metallicFactor" : 0
            }
        },
        {
            "doubleSided" : true,
            "name" : "Soga",
            "pbrMetallicRoughness" : {
                "baseColorFactor" : [
                    0.2597932815551758,
                    0.13520586490631104,
                    0.06042953208088875,
                    1
                ],
                "metallicFactor" : 0,
                "roughnessFactor" : 0.5
            }
        }
    ],
    "meshes" : [
        {
            "name" : "Cube.150",
            "primitives" : [
                {
                    "attributes" : {
                        "POSITION" : 0,
                        "NORMAL" : 1,
                        "TEXCOORD_0" : 2
                    },
                    "indices" : 3,
                    "material" : 0
                }
            ]
        },
        {
            "name" : "Cylinder.001",
            "primitives" : [
                {
                    "attributes" : {
                        "POSITION" : 4,
                        "NORMAL" : 5,
                        "TEXCOORD_0" : 6
                    },
                    "indices" : 7,
                    "material" : 1
                }
            ]
        }
    ],
    "accessors" : [
        {
            "bufferView" : 0,
            "componentType" : 5126,
            "count" : 818,
            "max" : [
                0.5701033473014832,
                0.6783711314201355,
                0.7977684140205383
            ],
            "min" : [
                -0.8924061059951782,
                -0.9637067317962646,
                -1.2148610353469849
            ],
            "type" : "VEC3"
        },
        {
            "bufferView" : 1,
            "componentType" : 5126,
            "count" : 818,
            "type" : "VEC3"
        },
        {
            "bufferView" : 2,
            "componentType" : 5126,
            "count" : 818,
            "type" : "VEC2"
        },
        {
            "bufferView" : 3,
            "componentType" : 5123,
            "count" : 1248,
            "type" : "SCALAR"
        },
        {
            "bufferView" : 4,
            "componentType" : 5126,
            "count" : 344,
            "max" : [
                0.04431987181305885,
                0.007659677416086197,
                0.05117619037628174
            ],
            "min" : [
                -0.2859314978122711,
                -0.0522855781018734,
                -0.05117619037628174
            ],
            "type" : "VEC3"
        },
        {
            "bufferView" : 5,
            "componentType" : 5126,
            "count" : 344,
            "type" : "VEC3"
        },
        {
            "bufferView" : 6,
            "componentType" : 5126,
            "count" : 344,
            "type" : "VEC2"
        },
        {
            "bufferView" : 7,
            "componentType" : 5123,
            "count" : 534,
            "type" : "SCALAR"
        }
    ],
    "bufferViews" : [
        {
            "buffer" : 0,
            "byteLength" : 9816,
            "byteOffset" : 0
        },
        {
            "buffer" : 0,
            "byteLength" : 9816,
            "byteOffset" : 9816
        },
        {
            "buffer" : 0,
            "byteLength" : 6544,
            "byteOffset" : 19632
        },
        {
            "buffer" : 0,
            "byteLength" : 2496,
            "byteOffset" : 26176
        },
        {
            "buffer" : 0,
            "byteLength" : 4128,
            "byteOffset" : 28672
        },
        {
            "buffer" : 0,
            "byteLength" : 4128,
            "byteOffset" : 32800
        },
        {
            "buffer" : 0,
            "byteLength" : 2752,
            "byteOffset" : 36928
        },
        {
            "buffer" : 0,
            "byteLength" : 1068,
            "byteOffset" : 39680
        }
    ],
    "buffers" : [
        {
            "byteLength" : 40748,
            "uri" : "secreto3.bin"
        }
    ]
}
