{
    "asset" : {
        "generator" : "Khronos glTF Blender I/O v1.6.16",
        "version" : "2.0"
    },
    "scene" : 0,
    "scenes" : [
        {
            "name" : "Scene",
            "nodes" : [
                0
            ]
        }
    ],
    "nodes" : [
        {
            "mesh" : 0,
            "name" : "Cube",
            "rotation" : [
                0,
                0.7071068286895752,
                0,
                0.7071068286895752
            ],
            "translation" : [
                0.017917588353157043,
                0.4904208183288574,
                0.00711369514465332
            ]
        }
    ],
    "materials" : [
        {
            "doubleSided" : true,
            "name" : "Gris",
            "pbrMetallicRoughness" : {
                "baseColorFactor" : [
                    0.04518624022603035,
                    0.04518623650074005,
                    0.04518623277544975,
                    1
                ],
                "metallicFactor" : 0,
                "roughnessFactor" : 0.5
            }
        },
        {
            "doubleSided" : true,
            "name" : "Material.001",
            "pbrMetallicRoughness" : {
                "baseColorFactor" : [
                    0.4672006368637085,
                    0.46119076013565063,
                    0.10606808960437775,
                    1
                ],
                "metallicFactor" : 0,
                "roughnessFactor" : 0.5
            }
        }
    ],
    "meshes" : [
        {
            "name" : "Cube.001",
            "primitives" : [
                {
                    "attributes" : {
                        "POSITION" : 0,
                        "NORMAL" : 1,
                        "TEXCOORD_0" : 2
                    },
                    "indices" : 3,
                    "material" : 0
                },
                {
                    "attributes" : {
                        "POSITION" : 4,
                        "NORMAL" : 5,
                        "TEXCOORD_0" : 6
                    },
                    "indices" : 7,
                    "material" : 1
                }
            ]
        }
    ],
    "accessors" : [
        {
            "bufferView" : 0,
            "componentType" : 5126,
            "count" : 115,
            "max" : [
                0.49222683906555176,
                0.7147515416145325,
                0.08095121383666992
            ],
            "min" : [
                -0.49222683906555176,
                -0.4904208183288574,
                -0.08095121383666992
            ],
            "type" : "VEC3"
        },
        {
            "bufferView" : 1,
            "componentType" : 5126,
            "count" : 115,
            "type" : "VEC3"
        },
        {
            "bufferView" : 2,
            "componentType" : 5126,
            "count" : 115,
            "type" : "VEC2"
        },
        {
            "bufferView" : 3,
            "componentType" : 5123,
            "count" : 210,
            "type" : "SCALAR"
        },
        {
            "bufferView" : 4,
            "componentType" : 5126,
            "count" : 87,
            "max" : [
                0.17701327800750732,
                0.393903911113739,
                0.11720132827758789
            ],
            "min" : [
                -0.17295107245445251,
                -0.01621776819229126,
                0.08095121383666992
            ],
            "type" : "VEC3"
        },
        {
            "bufferView" : 5,
            "componentType" : 5126,
            "count" : 87,
            "type" : "VEC3"
        },
        {
            "bufferView" : 6,
            "componentType" : 5126,
            "count" : 87,
            "type" : "VEC2"
        },
        {
            "bufferView" : 7,
            "componentType" : 5123,
            "count" : 150,
            "type" : "SCALAR"
        }
    ],
    "bufferViews" : [
        {
            "buffer" : 0,
            "byteLength" : 1380,
            "byteOffset" : 0
        },
        {
            "buffer" : 0,
            "byteLength" : 1380,
            "byteOffset" : 1380
        },
        {
            "buffer" : 0,
            "byteLength" : 920,
            "byteOffset" : 2760
        },
        {
            "buffer" : 0,
            "byteLength" : 420,
            "byteOffset" : 3680
        },
        {
            "buffer" : 0,
            "byteLength" : 1044,
            "byteOffset" : 4100
        },
        {
            "buffer" : 0,
            "byteLength" : 1044,
            "byteOffset" : 5144
        },
        {
            "buffer" : 0,
            "byteLength" : 696,
            "byteOffset" : 6188
        },
        {
            "buffer" : 0,
            "byteLength" : 300,
            "byteOffset" : 6884
        }
    ],
    "buffers" : [
        {
            "byteLength" : 7184,
            "uri" : "secreto2.bin"
        }
    ]
}
